<svg xmlns="http://www.w3.org/2000/svg" width="24" height="24" viewBox="0 0 24 24"><title>HIMA_Folder_add_Element</title><g id="Ebene_2" data-name="Ebene 2"><g id="Icon"><rect width="24" height="24" style="fill:none"/><path d="M21.6,4.88H12L9.6,2.5H2.4A2.38,2.38,0,0,0,0,4.88V19.13A2.39,2.39,0,0,0,2.4,21.5H21.6A2.39,2.39,0,0,0,24,19.13V7.25A2.39,2.39,0,0,0,21.6,4.88Zm0,14.25H2.4V7.25H21.6Z"/><polygon points="10.8 17.82 13.2 17.82 13.2 14.38 16.68 14.38 16.68 12 13.2 12 13.2 8.55 10.8 8.55 10.8 12 7.32 12 7.32 14.38 10.8 14.38 10.8 17.82"/></g></g></svg>