<svg xmlns="http://www.w3.org/2000/svg" width="24" height="24" viewBox="0 0 24 24"><title>HIMA_Folder_Download</title><g id="Ebene_2" data-name="Ebene 2"><g id="Icon"><rect width="24" height="24" style="fill:none"/><path d="M21.6,4.87H12L9.6,2.5H2.4A2.38,2.38,0,0,0,0,4.87V19.12A2.39,2.39,0,0,0,2.4,21.5H21.6A2.39,2.39,0,0,0,24,19.12V7.25A2.39,2.39,0,0,0,21.6,4.87Zm0,14.25H2.4V7.25H21.6Z"/><polygon points="16.09 13.49 13.85 13.49 13.85 9.37 10.15 9.37 10.15 13.49 7.91 13.49 12 17.54 16.09 13.49"/></g></g></svg>