<svg xmlns="http://www.w3.org/2000/svg" width="24" height="24" viewBox="0 0 24 24">
<title>HIMA_Dokument_PPT_Download</title>
<g>
	<g>
		<polygon points="20.9,18.3 20.9,14.6 16.7,14.6 16.7,18.3 13.6,18.3 18.8,23.5 23.9,18.3 		"/>
	</g>
	<g>
		<path d="M7,15.3v1.4H6.1v-4h1.6c0.3,0,0.6,0.1,0.8,0.2C8.7,13,8.9,13.1,9,13.3s0.2,0.4,0.2,0.7c0,0.4-0.1,0.7-0.4,0.9
			c-0.3,0.2-0.6,0.3-1.1,0.3H7z M7,14.6h0.7c0.2,0,0.4-0.1,0.5-0.2c0.1-0.1,0.2-0.2,0.2-0.4c0-0.2-0.1-0.4-0.2-0.5
			c-0.1-0.1-0.3-0.2-0.5-0.2H7V14.6z"/>
		<path d="M10.6,15.3v1.4H9.8v-4h1.6c0.3,0,0.6,0.1,0.8,0.2c0.2,0.1,0.4,0.3,0.5,0.5c0.1,0.2,0.2,0.4,0.2,0.7c0,0.4-0.1,0.7-0.4,0.9
			c-0.3,0.2-0.6,0.3-1.1,0.3H10.6z M10.6,14.6h0.7c0.2,0,0.4-0.1,0.5-0.2C12,14.4,12,14.2,12,14c0-0.2-0.1-0.4-0.2-0.5
			c-0.1-0.1-0.3-0.2-0.5-0.2h-0.8V14.6z"/>
		<path d="M16.4,13.4h-1.2v3.3h-0.8v-3.3h-1.2v-0.7h3.3V13.4z"/>
	</g>
	<path d="M12.6,19.6H5.4c-0.3,0-0.6-0.3-0.6-0.6V2c0-0.3,0.3-0.6,0.6-0.6h12.9c0.3,0,0.6,0.3,0.6,0.6v10.9h1.4V2c0-1.1-0.9-2-2-2
		H5.4c-1.1,0-2,0.9-2,2v17.1c0,1.1,0.9,2,2,2h8.7L12.6,19.6z"/>
	<g>
		<path d="M6.9,7.6h3.9V6.4H6.9V7.6z M6.9,9.9h3.9V8.7H6.9V9.9z M6.9,5.3h3.9V4.1H6.9V5.3z"/>
		<g>
			<path d="M14.6,4.5c-1.5,0-2.7,1.2-2.7,2.7c0,1.5,1.2,2.7,2.7,2.7c1.5,0,2.7-1.2,2.7-2.7h-2.7V4.5z"/>
			<path d="M15.1,3.9C15.1,3.9,15.1,3.9,15.1,3.9l0,2.7h2.7c0,0,0,0,0,0C17.8,5.1,16.6,3.9,15.1,3.9z"/>
		</g>
	</g>
</g>
</svg>
