<svg xmlns="http://www.w3.org/2000/svg" width="24" height="24" viewBox="0 0 24 24">
<title>HIMA_Dokument_XLS_Download</title>
<g>
	<g>
		<polygon points="19.9,18.7 19.9,15 15.6,15 15.6,18.7 12.5,18.7 17.7,24 23,18.7 		"/>
	</g>
	<path d="M11.5,20.1H4.1c-0.3,0-0.6-0.3-0.6-0.6V2.1c0-0.3,0.3-0.6,0.6-0.6h13.2c0.3,0,0.6,0.3,0.6,0.6v11.1h1.4V2.1
		c0-1.1-0.9-2-2-2H4.1c-1.1,0-2,0.9-2,2v17.4c0,1.1,0.9,2,2,2h8.8L11.5,20.1z"/>
	<g>
		<rect x="4.5" y="2.6" width="3.6" height="1.9"/>
		<rect x="8.9" y="2.6" width="3.6" height="1.9"/>
		<rect x="13.3" y="2.6" width="3.6" height="1.9"/>
	</g>
	<g>
		<rect x="4.5" y="5.4" width="3.6" height="1.9"/>
		<rect x="8.9" y="5.4" width="3.6" height="1.9"/>
		<rect x="13.3" y="5.4" width="3.6" height="1.9"/>
	</g>
	<g>
		<rect x="4.5" y="8.1" width="3.6" height="1.9"/>
		<rect x="8.9" y="8.1" width="3.6" height="1.9"/>
		<rect x="13.3" y="8.1" width="3.6" height="1.9"/>
	</g>
	<g>
		<path d="M6.8,13.1H5.6v0.8H7v0.5h-2v-3h2v0.5H5.6v0.7h1.2V13.1z"/>
		<path d="M8.4,12.4l0.6-1h0.7l-0.9,1.5l0.9,1.5H9l-0.6-1.1l-0.6,1.1H7.1L8,12.9l-0.9-1.5h0.7L8.4,12.4z"/>
		<path d="M12.4,13.4c0,0.3-0.1,0.6-0.4,0.8s-0.5,0.3-0.9,0.3c-0.4,0-0.7-0.1-0.9-0.4C10,13.8,9.9,13.4,9.9,13v-0.2
			c0-0.3,0.1-0.5,0.2-0.8c0.1-0.2,0.2-0.4,0.4-0.5c0.2-0.1,0.4-0.2,0.7-0.2c0.3,0,0.6,0.1,0.8,0.3c0.2,0.2,0.3,0.5,0.4,0.8h-0.6
			c0-0.2-0.1-0.3-0.2-0.4c-0.1-0.1-0.2-0.1-0.4-0.1c-0.2,0-0.4,0.1-0.5,0.2c-0.1,0.1-0.2,0.4-0.2,0.7V13c0,0.3,0,0.6,0.1,0.7
			c0.1,0.2,0.3,0.2,0.5,0.2c0.2,0,0.3,0,0.4-0.1c0.1-0.1,0.1-0.2,0.2-0.4H12.4z"/>
		<path d="M14.6,13.1h-1.2v0.8h1.4v0.5h-2v-3h2v0.5h-1.4v0.7h1.2V13.1z"/>
		<path d="M15.8,13.9h1.3v0.5h-2v-3h0.6V13.9z"/>
	</g>
</g>
</svg>
