<svg xmlns="http://www.w3.org/2000/svg" width="24" height="24" viewBox="0 0 24 24">
<title>HIMA_Dokument_XML_Download</title>
<g>
	<g>
		<path d="M4.4,20.2c-0.4,0-0.7-0.3-0.7-0.7l0-17.3c0-0.4,0.3-0.7,0.7-0.7h6.8v6.8h6.8v4.8h1.5V6.5L13.1,0H4.4C3.2,0,2.3,1,2.3,2.2
			l0,17.3c0,1.2,1,2.2,2.2,2.2h8.7l-1.5-1.5H4.4z M12.7,1.8l5,5h-5V1.8z"/>
	</g>
	<g>
		<polygon points="20.1,18.7 20.1,15.4 15.8,15.4 15.8,18.7 12.7,18.7 18,24 23.3,18.7 		"/>
	</g>
	<g>
		<path d="M6.8,11.8l0.8-1.4h1l-1.2,2l1.2,2.1h-1L6.8,13L6,14.5H5l1.2-2.1l-1.2-2h1L6.8,11.8z"/>
		<path d="M10.1,10.4l1.1,3l1-3h1.1v4.1h-0.8v-1.1l0.1-1.9l-1.1,3.1h-0.6l-1.1-3.1l0.1,1.9v1.1H9v-4.1H10.1z"/>
		<path d="M14.9,13.8h1.8v0.7h-2.6v-4.1h0.8V13.8z"/>
	</g>
</g>
</svg>
