<svg xmlns="http://www.w3.org/2000/svg" width="24" height="24" viewBox="0 0 24 24">
<title>HIMA_Dokument_JPEG_Download</title>
<g>
	<path d="M6.1,10.3l3-3.9l2.1,2.6l3-3.9l3.9,5.1H6.1z"/>
	<g>
		<polygon points="21,18.7 21,14.9 16.7,14.9 16.7,18.7 13.6,18.7 18.9,24 24.1,18.7 		"/>
	</g>
	<g>
		<path d="M7.3,12.9h0.8v2.8c0,0.3-0.1,0.5-0.2,0.7s-0.3,0.4-0.5,0.5C7.2,17,7,17.1,6.7,17.1c-0.4,0-0.8-0.1-1-0.3
			c-0.2-0.2-0.4-0.5-0.4-0.9h0.8c0,0.2,0,0.3,0.1,0.4s0.2,0.1,0.4,0.1c0.2,0,0.3-0.1,0.4-0.2c0.1-0.1,0.1-0.3,0.1-0.5V12.9z"/>
		<path d="M9.7,15.6V17H8.8v-4.1h1.6c0.3,0,0.6,0.1,0.8,0.2c0.2,0.1,0.4,0.3,0.5,0.5c0.1,0.2,0.2,0.4,0.2,0.7c0,0.4-0.1,0.7-0.4,0.9
			c-0.3,0.2-0.7,0.3-1.1,0.3H9.7z M9.7,14.9h0.8c0.2,0,0.4-0.1,0.5-0.2c0.1-0.1,0.2-0.3,0.2-0.5c0-0.2-0.1-0.4-0.2-0.5
			c-0.1-0.1-0.3-0.2-0.5-0.2H9.7V14.9z"/>
		<path d="M15.8,16.5c-0.2,0.2-0.4,0.3-0.6,0.4c-0.3,0.1-0.6,0.2-0.9,0.2c-0.4,0-0.7-0.1-0.9-0.2c-0.3-0.2-0.5-0.4-0.6-0.7
			c-0.1-0.3-0.2-0.6-0.2-1v-0.3c0-0.4,0.1-0.8,0.2-1.1c0.1-0.3,0.3-0.5,0.6-0.7c0.3-0.2,0.6-0.2,0.9-0.2c0.5,0,0.9,0.1,1.1,0.3
			c0.3,0.2,0.4,0.6,0.5,1H15c0-0.2-0.1-0.4-0.2-0.5c-0.1-0.1-0.3-0.2-0.5-0.2c-0.3,0-0.5,0.1-0.7,0.3c-0.2,0.2-0.2,0.5-0.2,1v0.3
			c0,0.4,0.1,0.8,0.2,1c0.2,0.2,0.4,0.3,0.7,0.3c0.3,0,0.5-0.1,0.7-0.2v-0.7h-0.8v-0.6h1.6V16.5z"/>
	</g>
	<path d="M12.6,20.1H5.2c-0.3,0-0.6-0.3-0.6-0.6V2c0-0.3,0.3-0.6,0.6-0.6h13.2C18.7,1.5,19,1.7,19,2v11.2h1.5V2c0-1.1-0.9-2-2-2H5.2
		c-1.1,0-2,0.9-2,2v17.5c0,1.1,0.9,2,2,2h8.9L12.6,20.1z"/>
</g>
</svg>
