<svg xmlns="http://www.w3.org/2000/svg" width="21" height="24" viewBox="0 0 21 24"><title>HIMA_Icon_Document_LDB</title><g id="Ebene_2" data-name="Ebene 2"><g id="Icon"><path d="M2.15,20.16a.66.66,0,0,1-.66-.67V2.17a.66.66,0,0,1,.66-.67H9V8.33H15.8v4.82h1.49V6.5L10.81,0H2.16A2.16,2.16,0,0,0,0,2.17V19.49a2.16,2.16,0,0,0,2.15,2.17h8.69l-1.49-1.5ZM10.47,1.78l5,5h-5Z"/><polygon points="17.86 18.71 17.86 14.9 13.58 14.9 13.58 18.71 10.44 18.71 15.72 24 21 18.71 17.86 18.71"/><path d="M4.35,15.11H6.08v.66H3.54v-4h.82Z"/><path d="M6.55,15.76v-4H7.76A1.85,1.85,0,0,1,8.7,12a1.65,1.65,0,0,1,.64.67,2.07,2.07,0,0,1,.23,1v.18a2.07,2.07,0,0,1-.23,1,1.63,1.63,0,0,1-.64.67,1.86,1.86,0,0,1-.93.24Zm.82-3.3v2.64h.39a.88.88,0,0,0,.73-.31,1.42,1.42,0,0,0,.26-.89v-.21a1.44,1.44,0,0,0-.25-.92.88.88,0,0,0-.73-.31Z"/><path d="M10.05,15.76v-4h1.39a1.81,1.81,0,0,1,1.09.28.94.94,0,0,1,.37.81.9.9,0,0,1-.15.51.86.86,0,0,1-.42.33.83.83,0,0,1,.48.31.91.91,0,0,1,.18.57,1,1,0,0,1-.36.87,1.64,1.64,0,0,1-1,.3Zm.82-2.3h.6q.62,0,.62-.49a.46.46,0,0,0-.16-.39.82.82,0,0,0-.49-.12h-.57Zm0,.58v1.07h.7A.67.67,0,0,0,12,15a.47.47,0,0,0,.16-.38.5.5,0,0,0-.56-.55Z"/></g></g></svg>