<svg xmlns="http://www.w3.org/2000/svg" width="24" height="24" viewBox="0 0 24 24">
<title>HIMA_Dokument_ZIP_Download</title>
<g>
	<g>
		<polygon points="20.3,18.7 20.3,14.9 16,14.9 16,18.7 12.9,18.7 18.2,24 23.5,18.7 		"/>
	</g>
	<g>
		<path d="M6.9,16.4H9v0.7H5.9v-0.5l2-2.9h-2V13H9v0.5L6.9,16.4z"/>
		<path d="M10.4,17.1H9.6V13h0.8V17.1z"/>
		<path d="M12.1,15.6v1.4h-0.8V13h1.6c0.3,0,0.6,0.1,0.8,0.2c0.2,0.1,0.4,0.3,0.5,0.5c0.1,0.2,0.2,0.4,0.2,0.7c0,0.4-0.1,0.7-0.4,1
			c-0.3,0.2-0.7,0.3-1.1,0.3H12.1z M12.1,15h0.8c0.2,0,0.4-0.1,0.5-0.2c0.1-0.1,0.2-0.3,0.2-0.5c0-0.2-0.1-0.4-0.2-0.5
			c-0.1-0.1-0.3-0.2-0.5-0.2h-0.8V15z"/>
	</g>
	<path d="M11.9,20.1H4.5c-0.3,0-0.6-0.3-0.6-0.6V2c0-0.3,0.3-0.6,0.6-0.6h13.2c0.3,0,0.6,0.3,0.6,0.6v11.2h1.5V2c0-1.1-0.9-2-2-2
		H4.5c-1.1,0-2,0.9-2,2v17.5c0,1.1,0.9,2,2,2h8.9L11.9,20.1z"/>
	<g>
		<path d="M13.8,6.9h-1.7V5.2h1.7V6.9z M13.8,4.3h-1.7V2.6h1.7V4.3z M13.8,1.7h-1.7V0h1.7V1.7z"/>
	</g>
	<polygon points="14.2,11.5 11.7,11.5 12.1,7.7 13.8,7.7 	"/>
</g>
</svg>
