<svg xmlns="http://www.w3.org/2000/svg" width="21" height="24" viewBox="0 0 21 24"><title>HIMA_Icon_Document_BS</title><g id="Ebene_2" data-name="Ebene 2"><g id="Icon"><path d="M2.15,20.16a.66.66,0,0,1-.66-.67V2.17a.66.66,0,0,1,.66-.67H9V8.33H15.8v4.82h1.49V6.5L10.81,0H2.16A2.16,2.16,0,0,0,0,2.17V19.49a2.16,2.16,0,0,0,2.15,2.17h8.69l-1.49-1.5ZM10.47,1.78l5,5h-5Z"/><polygon points="17.86 18.71 17.86 14.9 13.58 14.9 13.58 18.71 10.44 18.71 15.72 24 21 18.71 17.86 18.71"/><path d="M5.26,15.76V11.65H6.7a1.89,1.89,0,0,1,1.13.29,1,1,0,0,1,.39.84.94.94,0,0,1-.15.53.9.9,0,0,1-.43.34.87.87,0,0,1,.5.32,1,1,0,0,1,.18.59,1.09,1.09,0,0,1-.38.9,1.7,1.7,0,0,1-1.08.31Zm.85-2.39h.63q.64,0,.64-.51a.47.47,0,0,0-.16-.4.85.85,0,0,0-.51-.12H6.11Zm0,.6v1.11h.73a.7.7,0,0,0,.47-.14.49.49,0,0,0,.17-.39A.52.52,0,0,0,6.88,14Z"/><path d="M11.08,14.68a.43.43,0,0,0-.17-.37A2.21,2.21,0,0,0,10.3,14a4.29,4.29,0,0,1-.7-.28,1.14,1.14,0,0,1-.7-1,1,1,0,0,1,.19-.59,1.23,1.23,0,0,1,.54-.41,2,2,0,0,1,.79-.15,1.84,1.84,0,0,1,.78.16,1.25,1.25,0,0,1,.53.45,1.18,1.18,0,0,1,.19.66h-.85a.56.56,0,0,0-.18-.44.73.73,0,0,0-.5-.16.78.78,0,0,0-.48.13.42.42,0,0,0-.17.35.4.4,0,0,0,.2.34,2.26,2.26,0,0,0,.59.25,2.56,2.56,0,0,1,1.05.54,1.08,1.08,0,0,1,.33.8,1,1,0,0,1-.4.84,1.76,1.76,0,0,1-1.09.3,2.09,2.09,0,0,1-.86-.17A1.37,1.37,0,0,1,9,15.17a1.21,1.21,0,0,1-.2-.7h.85q0,.68.81.68a.79.79,0,0,0,.47-.12A.4.4,0,0,0,11.08,14.68Z"/></g></g></svg>