<svg xmlns="http://www.w3.org/2000/svg" width="24" height="24" viewBox="0 0 24 24">
<title>HIMA_Dokument_WMV_Download</title>
<g>
	<g>
		<polygon points="19.9,18.7 19.9,14.9 15.6,14.9 15.6,18.7 12.5,18.7 17.8,24 23,18.7 		"/>
	</g>
	<g>
		<path d="M7.4,12.9L8,10h0.8l-0.9,4.1H7.1l-0.7-2.7l-0.7,2.7H4.9L4,10h0.8l0.6,2.9L6,10h0.7L7.4,12.9z"/>
		<path d="M10.2,10l1.1,3l1-3h1.1v4.1h-0.8V13l0.1-1.9l-1.1,3.1H11l-1.1-3.1L10,13v1.1H9.1V10H10.2z"/>
		<path d="M15.6,13.1l0.9-3.1h0.9L16,14.1h-0.9L13.7,10h0.9L15.6,13.1z"/>
	</g>
	<path d="M11.5,20.1H4.1c-0.3,0-0.6-0.3-0.6-0.6V2c0-0.3,0.3-0.6,0.6-0.6h13.2c0.3,0,0.6,0.3,0.6,0.6v11.2h1.5V2c0-1.1-0.9-2-2-2
		H4.1C3,0,2,0.9,2,2v17.5c0,1.1,0.9,2,2,2H13L11.5,20.1z"/>
	<g>
		<circle cx="10.6" cy="5.3" r="3.1"/>
		<path class="st0" d="M9.5,3.6v3.5l3.1-1.8L9.5,3.6z"/>
	</g>
</g>
</svg>