<svg xmlns="http://www.w3.org/2000/svg" width="24" height="24" viewBox="0 0 24 24"><title>HIMA_Dokument_PDF_Download</title><g id="Ebene_2" data-name="Ebene 2"><g id="Icon"><rect width="24" height="24" style="fill:none"/><path d="M3.64,20.16A.66.66,0,0,1,3,19.49V2.17a.66.66,0,0,1,.66-.67h6.83V8.33h6.83v4.82h1.5V6.5L12.31,0H3.65A2.16,2.16,0,0,0,1.49,2.17V19.49a2.16,2.16,0,0,0,2.15,2.17h8.7l-1.5-1.5ZM12,1.78l5,5H12Z"/><path d="M7.47,11.81a1.86,1.86,0,0,0-.82-.17H5v4.12H5.9V14.31h.74A1.73,1.73,0,0,0,7.79,14a1.18,1.18,0,0,0,.41-1A1.35,1.35,0,0,0,8,12.29,1.25,1.25,0,0,0,7.47,11.81Zm-.3,1.65a.75.75,0,0,1-.51.16H5.9V12.33h.78a.67.67,0,0,1,.49.19.68.68,0,0,1,.18.49A.58.58,0,0,1,7.17,13.46Z"/><path d="M11,11.89a1.93,1.93,0,0,0-1-.24H8.79v4.12h1.28a1.94,1.94,0,0,0,1-.25,1.69,1.69,0,0,0,.67-.69,2.15,2.15,0,0,0,.24-1v-.19a2.15,2.15,0,0,0-.24-1A1.71,1.71,0,0,0,11,11.89Zm0,1.94a1.47,1.47,0,0,1-.27.93.92.92,0,0,1-.76.33H9.64V12.33h.42a.92.92,0,0,1,.76.32,1.49,1.49,0,0,1,.26,1Z"/><polygon points="15.24 12.33 15.24 11.64 12.55 11.64 12.55 15.76 13.4 15.76 13.4 14.08 15.03 14.08 15.03 13.39 13.4 13.39 13.4 12.33 15.24 12.33"/><polygon points="19.37 18.71 19.37 14.9 15.09 14.9 15.09 18.71 11.94 18.71 17.23 24 22.52 18.71 19.37 18.71"/></g></g></svg>