<svg xmlns="http://www.w3.org/2000/svg" width="36.73" height="34.9" viewBox="0 0 36.73 34.9"><title>hima_icon_download_extern</title><g id="Ebene_2" data-name="Ebene 2"><g id="Icon"><path d="M17.53,26a22.36,22.36,0,0,1-1.59,2.67,22.52,22.52,0,0,1-3-6.32H19a22.61,22.61,0,0,1-1.06,2.81h3.46a28.76,28.76,0,0,0,.89-2.81h1.2V19.14H22.9a27.82,27.82,0,0,0,.22-3.19,28.14,28.14,0,0,0-.22-3.19h5.39a13.4,13.4,0,0,1,.41,3.19,8.76,8.76,0,0,1,0,.89h3.2c0-.29,0-.59,0-.89a15.95,15.95,0,1,0-9.71,14.68l-2.92-2.92ZM27,9.57h-4.7A25.29,25.29,0,0,0,20.07,3.9,12.76,12.76,0,0,1,27,9.57Zm-11-6.31A22.35,22.35,0,0,1,19,9.57H12.9A22.33,22.33,0,0,1,15.94,3.26ZM3.6,19.14a12.61,12.61,0,0,1,0-6.38H9a26,26,0,0,0-.22,3.19A25.78,25.78,0,0,0,9,19.14Zm1.31,3.19h4.7A25.16,25.16,0,0,0,11.81,28,12.71,12.71,0,0,1,4.91,22.33ZM9.61,9.57H4.91a12.73,12.73,0,0,1,6.9-5.67A25.27,25.27,0,0,0,9.61,9.57ZM12,15.95a24,24,0,0,1,.25-3.19h7.47a23.92,23.92,0,0,1,.25,3.19,23.92,23.92,0,0,1-.25,3.19H12.21A24,24,0,0,1,12,15.95Z" style="fill:#445055"/><polygon points="32.02 26.65 32.02 18.26 24.95 18.26 24.95 26.65 20.24 26.65 20.55 26.95 21.16 27.57 23.57 29.98 28.48 34.9 36.73 26.65 32.02 26.65" style="fill:#445055"/></g></g></svg>