<svg xmlns="http://www.w3.org/2000/svg" width="24" height="24" viewBox="0 0 24 24"><title>HIMA_Folder_remove_all</title><g id="Ebene_2" data-name="Ebene 2"><g id="Icon"><rect width="24" height="24" style="fill:none"/><path d="M21.92,3.14H13.6L11.52,1H5.28A2.12,2.12,0,0,0,3.21,3.14v.75H8.8L10.21,5.3H21.92V16.09H20.8V9a2.13,2.13,0,0,0-2.08-2.16H10.4L8.32,4.72H2.08A2.12,2.12,0,0,0,0,6.88V19.83A2.13,2.13,0,0,0,2.08,22H18.72a2.13,2.13,0,0,0,2.08-2.16V18.25h1.12A2.13,2.13,0,0,0,24,16.09V5.3A2.13,2.13,0,0,0,21.92,3.14Zm-3.2,16.68H2.08V9H18.72Z"/><rect x="6.34" y="13.35" width="8.11" height="2.16"/></g></g></svg>