<svg xmlns="http://www.w3.org/2000/svg" width="24" height="24" viewBox="0 0 24 24"><title>HIMA_Dokument_Word_Download</title><g id="Ebene_2" data-name="Ebene 2"><g id="Icon"><rect width="24" height="24" style="fill:none"/><path d="M3.64,20.16A.66.66,0,0,1,3,19.49V2.17a.66.66,0,0,1,.66-.67h6.83V8.33h6.83v4.82h1.5V6.5L12.31,0H3.65A2.16,2.16,0,0,0,1.49,2.17V19.49a2.16,2.16,0,0,0,2.15,2.17h8.7l-1.5-1.5ZM12,1.78l5,5H12Z"/><path d="M7.06,11.06a1.92,1.92,0,0,0-1-.24H4.78v4.06H6.12a1.88,1.88,0,0,0,1-.25,1.72,1.72,0,0,0,.66-.69,2.09,2.09,0,0,0,.24-1v-.19a2.08,2.08,0,0,0-.24-1A1.72,1.72,0,0,0,7.06,11.06ZM7,12.93a1.47,1.47,0,0,1-.23.89.76.76,0,0,1-.65.3H5.76V11.57h.33a.77.77,0,0,1,.66.3,1.46,1.46,0,0,1,.23.89Z"/><path d="M11.17,11a1.86,1.86,0,0,0-1.85,0,1.63,1.63,0,0,0-.63.7,2.41,2.41,0,0,0-.22,1.05V13a2.33,2.33,0,0,0,.24,1,1.63,1.63,0,0,0,.63.68,1.77,1.77,0,0,0,.92.24,1.74,1.74,0,0,0,.92-.25,1.63,1.63,0,0,0,.63-.7A2.39,2.39,0,0,0,12,12.93v-.19a2.34,2.34,0,0,0-.23-1A1.65,1.65,0,0,0,11.17,11ZM11,12.95a1.71,1.71,0,0,1-.2.91.64.64,0,0,1-.57.32.65.65,0,0,1-.59-.32,1.76,1.76,0,0,1-.2-.92v-.3q0-1.1.78-1.1a.65.65,0,0,1,.58.31,1.71,1.71,0,0,1,.2.92Z"/><path d="M13.71,11.8a.58.58,0,0,1,.54-.27.77.77,0,0,1,.54.16.73.73,0,0,1,.19.53h1a1.54,1.54,0,0,0-.51-1.07,1.75,1.75,0,0,0-1.19-.39,1.67,1.67,0,0,0-.9.24,1.57,1.57,0,0,0-.6.69,2.46,2.46,0,0,0-.21,1v.2A2.15,2.15,0,0,0,13,14.41a1.59,1.59,0,0,0,1.26.52,2,2,0,0,0,.86-.18,1.38,1.38,0,0,0,.59-.5,1.48,1.48,0,0,0,.23-.75H15a.68.68,0,0,1-.19.51.75.75,0,0,1-.52.16.6.6,0,0,1-.56-.28,1.94,1.94,0,0,1-.16-.93v-.29A1.76,1.76,0,0,1,13.71,11.8Z"/><polygon points="19.37 18.71 19.37 15.39 15.09 15.39 15.09 18.71 11.94 18.71 17.23 24 22.52 18.71 19.37 18.71"/></g></g></svg>